<svg
    width="28"
    height="28"
    viewBox="0 0 34 34"
    fill="none"
    xmlns="http://www.w3.org/2000/svg"
>
    <path
        fill="#bbbbbb"
        d="M16.9993 3.06294C21.5386 3.06294 22.0758 3.08048 23.8687 3.16213C25.526 3.23771 26.4262 3.51438 27.0254 3.74719C27.8189 4.05557 28.3851 4.42402 28.9802 5.01852C29.5754 5.61369 29.9438 6.17985 30.2515 6.97342C30.4843 7.57265 30.761 8.47284 30.8366 10.1302C30.9182 11.9224 30.9358 12.4603 30.9358 16.9997C30.9358 21.5391 30.9182 22.0762 30.8366 23.8692C30.761 25.5265 30.4843 26.4267 30.2515 27.0259C29.9432 27.8195 29.5747 28.3856 28.9802 28.9808C28.3851 29.576 27.8189 29.9444 27.0254 30.2521C26.4262 30.4849 25.526 30.7616 23.8687 30.8372C22.0765 30.9188 21.5386 30.9364 16.9993 30.9364C12.46 30.9364 11.9222 30.9188 10.13 30.8372C8.47267 30.7616 7.5725 30.4849 6.97329 30.2521C6.17973 29.9438 5.61358 29.5753 5.01842 28.9808C4.42325 28.3856 4.05482 27.8195 3.74711 27.0259C3.51431 26.4267 3.23765 25.5265 3.16207 23.8692C3.08042 22.0769 3.06287 21.5391 3.06287 16.9997C3.06287 12.4603 3.08042 11.9231 3.16207 10.1302C3.23765 8.47284 3.51431 7.57265 3.74711 6.97342C4.05549 6.17985 4.42393 5.61369 5.01842 5.01852C5.61358 4.42334 6.17973 4.0549 6.97329 3.74719C7.5725 3.51438 8.47267 3.23771 10.13 3.16213C11.9229 3.08048 12.46 3.06294 16.9993 3.06294ZM16.9993 0C12.3824 0 11.8034 0.0195693 9.99028 0.10257C8.18116 0.184896 6.94562 0.472363 5.86393 0.892766C4.7458 1.32734 3.79772 1.90835 2.85301 2.85375C1.90831 3.79847 1.32664 4.74657 0.892748 5.86405C0.472353 6.94576 0.184893 8.18132 0.102568 9.99047C0.0195689 11.8037 0 12.3827 0 16.9997C0 21.6167 0.0195689 22.1957 0.102568 24.0089C0.184893 25.818 0.472353 27.0536 0.892748 28.1353C1.32731 29.2534 1.90831 30.2015 2.85369 31.1463C3.79907 32.0917 4.74648 32.6727 5.86461 33.1072C6.94562 33.5276 8.18184 33.8151 9.99095 33.8974C11.8041 33.9804 12.3831 34 17 34C21.6169 34 22.1959 33.9804 24.0091 33.8974C25.8182 33.8151 27.0544 33.5276 28.1354 33.1072C29.2535 32.6727 30.2016 32.0917 31.1463 31.1463C32.0917 30.2009 32.6727 29.2534 33.1073 28.1353C33.5276 27.0542 33.8151 25.818 33.8974 24.0089C33.9804 22.1957 34 21.6167 34 16.9997C34 12.3827 33.9804 11.8037 33.8974 9.99047C33.8151 8.18132 33.5276 6.94508 33.1073 5.86405C32.6727 4.7459 32.0917 3.7978 31.1463 2.85307C30.2009 1.90767 29.2535 1.32666 28.1354 0.892091C27.053 0.472363 25.8175 0.184896 24.0084 0.10257C22.1952 0.0195693 21.6162 0 16.9993 0Z"
    ></path>
    <path
        d="M16.9986 8.27026C12.1772 8.27026 8.26953 12.1787 8.26953 16.9995C8.26953 21.8203 12.1779 25.7288 16.9986 25.7288C21.8193 25.7288 25.7277 21.8203 25.7277 16.9995C25.7277 12.1787 21.82 8.27026 16.9986 8.27026ZM16.9986 22.6659C13.8689 22.6659 11.3324 20.1286 11.3324 16.9995C11.3324 13.8698 13.8696 11.3332 16.9986 11.3332C20.1276 11.3332 22.6648 13.8705 22.6648 16.9995C22.6648 20.1293 20.1283 22.6659 16.9986 22.6659Z"
        fill="#bbbbbb"
    ></path>
    <path
        d="M26.0731 9.96487C27.1997 9.96487 28.113 9.05156 28.113 7.92494C28.113 6.79832 27.1997 5.88501 26.0731 5.88501C24.9465 5.88501 24.0332 6.79832 24.0332 7.92494C24.0332 9.05156 24.9465 9.96487 26.0731 9.96487Z"
        fill="#bbbbbb"
    ></path>
</svg>