<svg
    width="30"
    height="30"
    viewBox="0 0 22 23"
    xmlns="http://www.w3.org/2000/svg"
>
    <path
        fill="#101010"
        fillRule="evenodd"
        clipRule="evenodd"
        d="M17.15 5.03075C15.3688 3.2495 12.9937 2.2995 10.5 2.2995C5.275 2.2995 1 6.5745 1 11.7995C1 13.462 1.47501 15.1245 2.30626 16.5495L1 21.2995L5.98751 19.9932C7.41251 20.7057 8.95625 21.1807 10.5 21.1807C15.725 21.1807 20 16.9057 20 11.6807C20 9.187 18.9313 6.812 17.15 5.03075ZM10.5 19.637C9.075 19.637 7.65001 19.2808 6.46251 18.5683L6.22499 18.4495L3.25624 19.2807L4.08751 16.4307L3.84999 16.0745C3.01874 14.7682 2.66249 13.3433 2.66249 11.9183C2.66249 7.64325 6.225 4.08075 10.5 4.08075C12.6375 4.08075 14.5375 4.912 16.0813 6.337C17.625 7.88075 18.3375 9.78075 18.3375 11.9183C18.3375 16.0745 14.8938 19.637 10.5 19.637ZM14.775 13.6995C14.5375 13.5807 13.35 12.987 13.1125 12.987C12.875 12.8682 12.7562 12.8682 12.6375 13.1058C12.5187 13.3433 12.0438 13.8182 11.925 14.0557C11.8063 14.1745 11.6875 14.1745 11.45 14.1745C11.2125 14.0557 10.5 13.8182 9.55001 12.987C8.83751 12.3932 8.36251 11.562 8.24376 11.3245C8.12501 11.087 8.24376 10.9682 8.36251 10.8495C8.48126 10.7307 8.6 10.612 8.71875 10.4932C8.8375 10.3745 8.83751 10.2558 8.95626 10.137C9.07501 10.0182 8.95626 9.8995 8.95626 9.78075C8.95626 9.662 8.48126 8.4745 8.24376 7.9995C8.12501 7.64325 7.88751 7.64325 7.76876 7.64325C7.65001 7.64325 7.53124 7.64325 7.29374 7.64325C7.17499 7.64325 6.93749 7.64325 6.69999 7.88075C6.46249 8.11825 5.86876 8.712 5.86876 9.8995C5.86876 11.087 6.69999 12.1557 6.81874 12.3932C6.93749 12.512 8.48124 15.0057 10.8562 15.9557C12.875 16.787 13.2313 16.5495 13.7063 16.5495C14.1813 16.5495 15.1313 15.9557 15.25 15.4808C15.4875 14.887 15.4875 14.412 15.3688 14.412C15.25 13.8183 15.0125 13.8182 14.775 13.6995Z"
    ></path>
</svg>